<svg width="15" height="23" viewBox="0 0 15 23" fill="none" xmlns="http://www.w3.org/2000/svg">
<path d="M4.79182 0C4.07343 0 3.83346 0.161772 3.83346 0.958365V1.67675H1.67675C0.260675 1.67675 0 1.9382 0 3.35351V21.3232C0 22.7393 0.261442 23 1.67675 23H13.1771C14.5932 23 14.8539 22.7385 14.8539 21.3232V3.35351C14.8539 1.93743 14.5924 1.67675 13.1771 1.67675H11.0204V0.958365C11.0204 0.162539 10.7812 0 10.0621 0H4.79182ZM1.67675 5.0318C1.67675 3.11507 1.43755 3.35504 3.35351 3.35504C4.31187 3.35504 10.7812 3.35504 11.4996 3.35504C13.4163 3.35504 13.1764 3.11583 13.1764 5.0318C13.1764 5.99016 13.1764 18.6889 13.1764 19.6472C13.1764 21.564 13.4156 21.324 11.4996 21.324C10.5412 21.324 4.31187 21.324 3.35351 21.324C1.43678 21.324 1.67675 21.5632 1.67675 19.6472C1.67675 18.6881 1.67675 5.99016 1.67675 5.0318ZM2.87433 8.38607H11.9788C12.2433 8.38607 12.458 8.60075 12.458 8.86526V11.5011C12.458 11.7656 12.2433 11.9803 11.9788 11.9803H2.87433C2.60982 11.9803 2.39514 11.7656 2.39514 11.5011V8.86526C2.39514 8.60075 2.60982 8.38607 2.87433 8.38607ZM2.87433 12.6987H11.9788C12.2433 12.6987 12.458 12.9134 12.458 13.1779V15.8138C12.458 16.0783 12.2433 16.293 11.9788 16.293H2.87433C2.60982 16.293 2.39514 16.0783 2.39514 15.8138V13.1779C2.39514 12.9134 2.60982 12.6987 2.87433 12.6987ZM2.87433 17.0114H11.9788C12.2433 17.0114 12.458 17.226 12.458 17.4905V20.1264C12.458 20.3909 12.2433 20.6056 11.9788 20.6056H2.87433C2.60982 20.6056 2.39514 20.3909 2.39514 20.1264V17.4905C2.39514 17.226 2.60982 17.0114 2.87433 17.0114Z" fill="#4E4E4E"/>
</svg>
