<svg viewBox="0 0 24 24" xmlns="http://www.w3.org/2000/svg" xmlns:xlink="http://www.w3.org/1999/xlink" width="24.000000" height="24.000000" fill="none">
	<rect id="smartphone-rotate-2-svgrepo-com 2" width="24.000000" height="24.000000" x="0.000000" y="0.000000" fill="rgb(255,255,255)" fill-opacity="0" />
	<path id="Vector" d="M7.58579 7.58579C8.17157 7 9.11438 7 11 7L13 7C14.8856 7 15.8284 7 16.4142 7.58579C17 8.17157 17 9.11438 17 11L17 13C17 14.8856 17 15.8284 16.4142 16.4142C15.8284 17 14.8856 17 13 17L11 17C9.11438 17 8.17157 17 7.58579 16.4142C7 15.8284 7 14.8856 7 13L7 11C7 9.11438 7 8.17157 7.58579 7.58579Z" fill-rule="nonzero" stroke="rgb(77.7617,77.5673,77.5673)" stroke-linecap="round" stroke-width="1" />
	<path id="Vector" d="M13 10L11 10C10.4477 10 10 10.4477 10 11L10 13C10 13.5523 10.4477 14 11 14L13 14C13.5523 14 14 13.5523 14 13L14 11C14 10.4477 13.5523 10 13 10Z" fill="rgb(77.7617,77.5673,77.5673)" fill-rule="evenodd" />
	<path id="Vector" d="M3 0L0 0" stroke="rgb(77.7617,77.5673,77.5673)" stroke-linecap="round" stroke-width="1" transform="matrix(0,1,-1,0,10,4)" />
	<path id="Vector" d="M3 0L0 0" stroke="rgb(77.7617,77.5673,77.5673)" stroke-linecap="round" stroke-width="1" transform="matrix(0,1,-1,0,14,4)" />
	<path id="Vector" d="M17 10L20 10" stroke="rgb(77.7617,77.5673,77.5673)" stroke-linecap="round" stroke-width="1" />
	<path id="Vector" d="M17 14L20 14" stroke="rgb(77.7617,77.5673,77.5673)" stroke-linecap="round" stroke-width="1" />
	<path id="Vector" d="M3 0L0 0" stroke="rgb(77.7617,77.5673,77.5673)" stroke-linecap="round" stroke-width="1" transform="matrix(0,1,-1,0,10,17)" />
	<path id="Vector" d="M3 0L0 0" stroke="rgb(77.7617,77.5673,77.5673)" stroke-linecap="round" stroke-width="1" transform="matrix(0,1,-1,0,14,17)" />
	<path id="Vector" d="M4 10L7 10" stroke="rgb(77.7617,77.5673,77.5673)" stroke-linecap="round" stroke-width="1" />
	<path id="Vector" d="M4 14L7 14" stroke="rgb(77.7617,77.5673,77.5673)" stroke-linecap="round" stroke-width="1" />
</svg>
