<svg viewBox="0 0 24 24" xmlns="http://www.w3.org/2000/svg" xmlns:xlink="http://www.w3.org/1999/xlink" width="24.000000" height="24.000000" fill="none">
	<rect id="delivery-truck-svgrepo-com (1) 1" width="24.000000" height="24.000000" x="0.000000" y="0.000000" fill="rgb(255,255,255)" fill-opacity="0" />
	<g id="Delivery Truck">
		<g id="Group">
			<path id="Vector" d="M21.47 11.185L20.44 9.755C20.2095 9.43121 19.9051 9.16706 19.552 8.98445C19.199 8.80184 18.8075 8.70604 18.41 8.705L14.03 8.705L14.03 6.565C14.03 5.90196 13.7666 5.26608 13.2978 4.79724C12.8289 4.32839 12.193 4.065 11.53 4.065L4.56 4.065C3.89752 4.06685 3.26271 4.33083 2.79427 4.79928C2.32583 5.26772 2.06184 5.90253 2.06 6.565L2.06 16.505C2.06 16.9028 2.21803 17.2844 2.49934 17.5657C2.78064 17.847 3.16217 18.005 3.56 18.005L4.78 18.005C4.85551 18.54 5.1217 19.0298 5.5296 19.3842C5.9375 19.7385 6.45966 19.9337 7 19.9337C7.54033 19.9337 8.06249 19.7385 8.47039 19.3842C8.87829 19.0298 9.14449 18.54 9.22 18.005L14.78 18.005C14.8555 18.54 15.1217 19.0298 15.5296 19.3842C15.9375 19.7385 16.4597 19.9337 17 19.9337C17.5403 19.9337 18.0625 19.7385 18.4704 19.3842C18.8783 19.0298 19.1445 18.54 19.22 18.005L20.44 18.005C20.8378 18.005 21.2194 17.847 21.5007 17.5657C21.782 17.2844 21.94 16.9028 21.94 16.505L21.94 12.635C21.9376 12.1146 21.7733 11.6079 21.47 11.185ZM7 18.935C6.75277 18.935 6.5111 18.8617 6.30553 18.7243C6.09997 18.587 5.93976 18.3918 5.84515 18.1634C5.75054 17.9349 5.72578 17.6836 5.77402 17.4411C5.82225 17.1987 5.9413 16.9759 6.11611 16.8011C6.29093 16.6263 6.51366 16.5072 6.75613 16.459C6.99861 16.4108 7.24994 16.4355 7.47835 16.5302C7.70676 16.6248 7.90198 16.785 8.03934 16.9905C8.17669 17.1961 8.25 17.4378 8.25 17.685C8.25 18.0165 8.1183 18.3345 7.88388 18.5689C7.64946 18.8033 7.33152 18.935 7 18.935ZM13.03 17.005L9.15 17.005C9.00439 16.5491 8.71766 16.1513 8.3312 15.8691C7.94474 15.5868 7.47856 15.4347 7 15.4347C6.52143 15.4347 6.05526 15.5868 5.6688 15.8691C5.28234 16.1513 4.9956 16.5491 4.85 17.005L3.56 17.005C3.42739 17.005 3.30021 16.9523 3.20644 16.8586C3.11268 16.7648 3.06 16.6376 3.06 16.505L3.06 6.565C3.06 6.16718 3.21803 5.78565 3.49934 5.50434C3.78064 5.22304 4.16217 5.065 4.56 5.065L11.53 5.065C11.9278 5.065 12.3094 5.22304 12.5907 5.50434C12.872 5.78565 13.03 6.16718 13.03 6.565L13.03 17.005ZM17 18.935C16.7528 18.935 16.5111 18.8617 16.3055 18.7243C16.1 18.587 15.9398 18.3918 15.8451 18.1634C15.7505 17.9349 15.7258 17.6836 15.774 17.4411C15.8222 17.1987 15.9413 16.9759 16.1161 16.8011C16.2909 16.6263 16.5137 16.5072 16.7561 16.459C16.9986 16.4108 17.2499 16.4355 17.4784 16.5302C17.7068 16.6248 17.902 16.785 18.0393 16.9905C18.1767 17.1961 18.25 17.4378 18.25 17.685C18.25 18.0165 18.1183 18.3345 17.8839 18.5689C17.6495 18.8033 17.3315 18.935 17 18.935ZM20.94 16.505C20.94 16.6376 20.8873 16.7648 20.7936 16.8586C20.6998 16.9523 20.5726 17.005 20.44 17.005L19.15 17.005C19.0044 16.5491 18.7177 16.1513 18.3312 15.8691C17.9447 15.5868 17.4786 15.4347 17 15.4347C16.5214 15.4347 16.0553 15.5868 15.6688 15.8691C15.2823 16.1513 14.9956 16.5491 14.85 17.005L14.03 17.005L14.03 9.705L18.41 9.705C18.6486 9.7066 18.8834 9.76449 19.0954 9.87396C19.3074 9.98344 19.4906 10.1414 19.63 10.335L20.66 11.765C20.84 12.0196 20.9377 12.3232 20.94 12.635L20.94 16.505Z" fill="rgb(121,121,121)" fill-rule="nonzero" />
			<path id="Vector" d="M18.029 12.205L16.029 12.205C15.8964 12.205 15.7692 12.1523 15.6754 12.0586C15.5817 11.9648 15.529 11.8376 15.529 11.705C15.529 11.5724 15.5817 11.4452 15.6754 11.3515C15.7692 11.2577 15.8964 11.205 16.029 11.205L18.029 11.205C18.1616 11.205 18.2888 11.2577 18.3825 11.3515C18.4763 11.4452 18.529 11.5724 18.529 11.705C18.529 11.8376 18.4763 11.9648 18.3825 12.0586C18.2888 12.1523 18.1616 12.205 18.029 12.205Z" fill="rgb(121,121,121)" fill-rule="nonzero" />
		</g>
	</g>
</svg>
