<svg width="20" height="18" viewBox="0 0 20 18" fill="none" xmlns="http://www.w3.org/2000/svg">
<path fill-rule="evenodd" clip-rule="evenodd" d="M12.2222 18H7.77778C4.65675 18 3.09624 18 1.97524 17.2646C1.48995 16.9462 1.07328 16.5371 0.74902 16.0607C1.19209e-07 14.9601 0 13.4279 0 10.3636C0 7.2994 1.19209e-07 5.76721 0.74902 4.6666C1.07328 4.19014 1.48995 3.78104 1.97524 3.46268C2.69555 2.99013 3.59733 2.82123 4.978 2.76086C5.63685 2.76086 6.20412 2.27068 6.33333 1.63636C6.52715 0.68489 7.37805 0 8.3663 0H11.6337C12.6219 0 13.4728 0.68489 13.6667 1.63636C13.7959 2.27068 14.3631 2.76086 15.022 2.76086C16.4027 2.82123 17.3044 2.99013 18.0248 3.46268C18.51 3.78104 18.9267 4.19014 19.251 4.6666C20 5.76721 20 7.2994 20 10.3636C20 13.4279 20 14.9601 19.251 16.0607C18.9267 16.5371 18.51 16.9462 18.0248 17.2646C16.9038 18 15.3433 18 12.2222 18ZM13.2697 6.59961C13.2697 6.1854 12.9339 5.84961 12.5197 5.84961C12.1055 5.84961 11.7697 6.1854 11.7697 6.59961V6.74316C10.2996 5.99864 8.4581 6.24066 7.22951 7.4692C5.69954 8.9992 5.69954 11.4798 7.22951 13.0098C8.7595 14.5397 11.2401 14.5397 12.77 13.0098C13.421 12.3588 13.7957 11.5337 13.8923 10.6844C13.9391 10.2728 13.6434 9.9012 13.2319 9.8544C12.8203 9.8076 12.4487 10.1033 12.4019 10.5148C12.3422 11.0392 12.112 11.5465 11.7094 11.9491C10.7652 12.8933 9.2344 12.8933 8.2902 11.9491C7.34598 11.0049 7.34598 9.4741 8.2902 8.5299C8.9379 7.8822 9.8617 7.6788 10.6828 7.9198C10.3737 8.0637 10.1928 8.4061 10.2661 8.7542C10.3515 9.1595 10.7492 9.4189 11.1546 9.3335L12.6743 9.0135C13.0213 8.9404 13.2697 8.6342 13.2697 8.2796V6.59961Z" fill="#4E4E4E"/>
</svg>
