<svg viewBox="0 0 24 24" xmlns="http://www.w3.org/2000/svg" xmlns:xlink="http://www.w3.org/1999/xlink" width="24.000000" height="24.000000" fill="none" customFrame="#000000">
	<g id="verify">
		<path id="Vector" d="M10.7899 15.17C10.5899 15.17 10.3999 15.09 10.2599 14.95L7.83994 12.53C7.54994 12.24 7.54994 11.76 7.83994 11.47C8.12994 11.18 8.60994 11.18 8.89994 11.47L10.7899 13.36L15.0899 9.06003C15.3799 8.77003 15.8599 8.77003 16.1499 9.06003C16.4399 9.35003 16.4399 9.83003 16.1499 10.12L11.3199 14.95C11.1799 15.09 10.9899 15.17 10.7899 15.17Z" fill="rgb(121.324,121.324,121.324)" fill-rule="nonzero" />
		<path id="Vector" d="M11.9999 22.75C11.3699 22.75 10.7399 22.54 10.2499 22.12L8.66988 20.76C8.50988 20.62 8.10988 20.48 7.89988 20.48L6.17988 20.48C4.69988 20.48 3.49988 19.28 3.49988 17.8L3.49988 16.09C3.49988 15.88 3.35988 15.49 3.21988 15.33L1.86988 13.74C1.04988 12.77 1.04988 11.24 1.86988 10.27L3.21988 8.68C3.35988 8.52 3.49988 8.13 3.49988 7.92L3.49988 6.2C3.49988 4.72 4.69988 3.52 6.17988 3.52L7.90988 3.52C8.11988 3.52 8.51988 3.37 8.67988 3.24L10.2599 1.88C11.2399 1.04 12.7699 1.04 13.7499 1.88L15.3299 3.24C15.4899 3.38 15.8899 3.52 16.0999 3.52L17.7999 3.52C19.2799 3.52 20.4799 4.72 20.4799 6.2L20.4799 7.9C20.4799 8.11 20.6299 8.51 20.7699 8.67L22.1299 10.25C22.9699 11.23 22.9699 12.76 22.1299 13.74L20.7699 15.32C20.6299 15.48 20.4799 15.88 20.4799 16.09L20.4799 17.79C20.4799 19.27 19.2799 20.47 17.7999 20.47L16.0999 20.47C15.8899 20.47 15.4899 20.62 15.3299 20.75L13.7499 22.11C13.2599 22.54 12.6299 22.75 11.9999 22.75ZM6.17988 5.02C5.52988 5.02 4.99988 5.55 4.99988 6.2L4.99988 7.91C4.99988 8.48 4.72988 9.21 4.35988 9.64L3.00988 11.23C2.65988 11.64 2.65988 12.35 3.00988 12.76L4.35988 14.35C4.72988 14.79 4.99988 15.51 4.99988 16.08L4.99988 17.79C4.99988 18.44 5.52988 18.97 6.17988 18.97L7.90988 18.97C8.48988 18.97 9.21988 19.24 9.65988 19.62L11.2399 20.98C11.6499 21.33 12.3699 21.33 12.7799 20.98L14.3599 19.62C14.7999 19.25 15.5299 18.97 16.1099 18.97L17.8099 18.97C18.4599 18.97 18.9899 18.44 18.9899 17.79L18.9899 16.09C18.9899 15.51 19.2599 14.78 19.6399 14.34L20.9999 12.76C21.3499 12.35 21.3499 11.63 20.9999 11.22L19.6399 9.64C19.2599 9.2 18.9899 8.47 18.9899 7.89L18.9899 6.2C18.9899 5.55 18.4599 5.02 17.8099 5.02L16.1099 5.02C15.5299 5.02 14.7999 4.75 14.3599 4.37L12.7799 3.01C12.3699 2.66 11.6499 2.66 11.2399 3.01L9.65988 4.38C9.21988 4.75 8.47988 5.02 7.90988 5.02L6.17988 5.02Z" fill="rgb(121.324,121.324,121.324)" fill-rule="nonzero" />
		<path id="Vector" opacity="0" />
	</g>
</svg>
