<svg width="20" height="18" viewBox="0 0 20 18" fill="none" xmlns="http://www.w3.org/2000/svg">
<path fill-rule="evenodd" clip-rule="evenodd" d="M7.77778 18H12.2222C15.3433 18 16.9038 18 18.0248 17.2646C18.51 16.9462 18.9267 16.5371 19.251 16.0607C20 14.9601 20 13.4279 20 10.3636C20 7.2994 20 5.76721 19.251 4.6666C18.9267 4.19014 18.51 3.78104 18.0248 3.46268C17.3044 2.99013 16.4027 2.82123 15.022 2.76086C14.3631 2.76086 13.7959 2.27068 13.6667 1.63636C13.4728 0.68489 12.6219 0 11.6337 0H8.3663C7.37805 0 6.52715 0.68489 6.33333 1.63636C6.20412 2.27068 5.63685 2.76086 4.978 2.76086C3.59733 2.82123 2.69555 2.99013 1.97524 3.46268C1.48995 3.78104 1.07328 4.19014 0.74902 4.6666C1.19209e-07 5.76721 0 7.2994 0 10.3636C0 13.4279 1.19209e-07 14.9601 0.74902 16.0607C1.07328 16.5371 1.48995 16.9462 1.97524 17.2646C3.09624 18 4.65675 18 7.77778 18ZM10 6.27273C7.69881 6.27273 5.83333 8.1043 5.83333 10.3636C5.83333 12.623 7.69881 14.4545 10 14.4545C12.3012 14.4545 14.1667 12.623 14.1667 10.3636C14.1667 8.1043 12.3012 6.27273 10 6.27273ZM10 7.9091C8.6193 7.9091 7.5 9.008 7.5 10.3636C7.5 11.7192 8.6193 12.8182 10 12.8182C11.3807 12.8182 12.5 11.7192 12.5 10.3636C12.5 9.008 11.3807 7.9091 10 7.9091ZM14.7222 7.0909C14.7222 6.63904 15.0953 6.27273 15.5556 6.27273H16.6667C17.1269 6.27273 17.5 6.63904 17.5 7.0909C17.5 7.5428 17.1269 7.9091 16.6667 7.9091H15.5556C15.0953 7.9091 14.7222 7.5428 14.7222 7.0909Z" fill="#4E4E4E"/>
</svg>
