<svg width="13" height="20" viewBox="0 0 13 20" fill="none" xmlns="http://www.w3.org/2000/svg">
<path fill-rule="evenodd" clip-rule="evenodd" d="M0.878694 0.878665C-8.70232e-07 1.75736 5.0711e-05 3.17152 -1.04598e-06 5.99998L-8.70232e-07 13.9999C-8.70232e-07 16.8284 -1.57321e-06 18.2425 0.87873 19.1213C1.75739 19.9999 3.17157 20 6.00001 19.9999L7 19.9999C9.82837 19.9999 11.2426 19.9999 12.1213 19.1213C12.9999 18.2426 12.9999 16.8283 12.9999 14L13 6C12.9999 3.17154 13 1.75737 12.1213 0.878664C11.2426 -8.78943e-06 9.8284 -8.26219e-06 6.99999 -8.26219e-06L5.99999 -8.08645e-06C3.17158 -8.17432e-06 1.75737 -8.08645e-06 0.878694 0.878665ZM8.99963 3.78225C9.43142 3.78225 9.78147 3.43221 9.78147 3.00041C9.78146 2.56861 9.43142 2.21857 8.99963 2.21857L3.99964 2.21856C3.56784 2.21857 3.2178 2.56861 3.2178 3.0004C3.2178 3.43221 3.56784 3.78225 3.99964 3.78225L8.99963 3.78225ZM6.49942 17.0005C7.32788 17.0004 7.9994 16.3289 7.99947 15.5004C7.99947 14.672 7.32788 14.0004 6.49949 14.0004C5.67103 14.0005 4.9995 14.672 4.99943 15.5005C4.99943 16.3289 5.67103 17.0005 6.49942 17.0005Z" fill="#4E4E4E"/>
</svg>
