<svg width="27" height="24" viewBox="0 0 27 24" fill="none" xmlns="http://www.w3.org/2000/svg">
<path d="M0.765957 0.765957H4.85106L7.91489 18.1277H24.2553M7.91489 12.6809H23.8366C23.9547 12.6809 24.0692 12.6401 24.1605 12.5652C24.2519 12.4904 24.3145 12.3862 24.3377 12.2704L26.176 3.07894C26.1908 3.00482 26.189 2.92834 26.1707 2.855C26.1524 2.78167 26.118 2.71331 26.0701 2.65487C26.0221 2.59643 25.9618 2.54936 25.8935 2.51706C25.8251 2.48476 25.7505 2.46803 25.6749 2.46809H5.87234M9.95745 22.2128C9.95745 22.7768 9.50021 23.234 8.93617 23.234C8.37213 23.234 7.91489 22.7768 7.91489 22.2128C7.91489 21.6487 8.37213 21.1915 8.93617 21.1915C9.50021 21.1915 9.95745 21.6487 9.95745 22.2128ZM24.2553 22.2128C24.2553 22.7768 23.7981 23.234 23.234 23.234C22.67 23.234 22.2128 22.7768 22.2128 22.2128C22.2128 21.6487 22.67 21.1915 23.234 21.1915C23.7981 21.1915 24.2553 21.6487 24.2553 22.2128Z" stroke="black" stroke-width="1.5" stroke-linecap="round" stroke-linejoin="round"/>
</svg>
