<svg width="18" height="18" viewBox="0 0 18 18" fill="none" xmlns="http://www.w3.org/2000/svg">
<path fill-rule="evenodd" clip-rule="evenodd" d="M14.8741 7.33928L16.7659 5.44746C17.3402 4.87313 17.6274 4.58596 17.7809 4.27617C18.073 3.68677 18.073 2.99477 17.7809 2.40536C17.6274 2.09558 17.3402 1.80841 16.7659 1.23407C16.1915 0.659736 15.9044 0.372567 15.5946 0.219056C15.0052 -0.0730187 14.3132 -0.0730187 13.7238 0.219056C13.414 0.372567 13.1268 0.659736 12.5525 1.23407L10.6368 3.14975C11.6521 4.8884 13.1122 6.33735 14.8741 7.33928ZM9.10477 4.6818L1.86774 11.9188C1.42 12.3666 1.19613 12.5904 1.04894 12.8655C0.901753 13.1405 0.839664 13.4509 0.715484 14.0718L0.0672583 17.313C-0.0028127 17.6633 -0.0378482 17.8385 0.0618069 17.9381C0.161462 18.0378 0.336639 18.0028 0.686993 17.9327L3.92812 17.2845C4.54902 17.1603 4.85947 17.0982 5.1345 16.951C5.40952 16.8038 5.63339 16.58 6.08113 16.1322L13.3381 8.87529C11.6299 7.80546 10.185 6.37048 9.10477 4.6818Z" fill="black"/>
</svg>
