<svg width="16" height="16" viewBox="0 0 16 16" fill="none" xmlns="http://www.w3.org/2000/svg">
<path d="M8.84757 3.81794C8.84757 3.98169 8.84757 4.51541 8.84757 5.27366H11.4546L11.1719 7.59763H8.84757C8.84757 11.1816 8.84757 15.9843 8.84757 15.9843H5.76238C5.76238 15.9843 5.76238 11.2452 5.76238 7.59763H4.15479V5.27366H5.76238C5.76238 4.35204 5.76238 3.69669 5.76238 3.51422C5.76238 2.64485 5.69688 2.23235 6.06629 1.55866C6.43588 0.885005 7.47838 -0.00543266 9.28147 0.0160048C11.085 0.0382236 11.8452 0.211724 11.8452 0.211724L11.4546 2.6885C11.4546 2.6885 10.3029 2.38441 9.73763 2.49279C9.1731 2.60119 8.84757 2.94894 8.84757 3.81794Z" fill="white"/>
</svg>
