<svg viewBox="0 0 16 16" xmlns="http://www.w3.org/2000/svg" xmlns:xlink="http://www.w3.org/1999/xlink" width="16.000000" height="16.000000" fill="none">
	<rect id="Icon/16px/Instagram" width="16.000000" height="16.000000" x="0.000000" y="0.000000" fill="rgb(255,255,255)" fill-opacity="0" />
	<path id="Vector" d="M7.99992 14.6666C6.57042 14.6666 5.54174 14.6659 4.73972 14.5881C3.94689 14.5112 3.43972 14.3636 3.03497 14.1092C2.57237 13.8186 2.1812 13.4274 1.89052 12.9649C1.63628 12.5601 1.4885 12.0529 1.41174 11.2601C1.33396 10.4581 1.33325 9.42941 1.33325 7.99992C1.33325 6.57042 1.33396 5.54174 1.41174 4.73972C1.4885 3.94689 1.63628 3.43972 1.89052 3.03497C2.18119 2.57236 2.57236 2.18119 3.03497 1.89052C3.43972 1.63628 3.94689 1.4885 4.73972 1.41174C5.54164 1.33396 6.57032 1.33325 7.99992 1.33325C9.42941 1.33325 10.4581 1.33396 11.2601 1.41174C12.0529 1.4885 12.5601 1.63628 12.9649 1.89052C13.4274 2.1812 13.8186 2.57237 14.1092 3.03497C14.3636 3.43972 14.5112 3.94689 14.5881 4.73972C14.6659 5.54174 14.6666 6.57042 14.6666 7.99992C14.6666 9.42941 14.6659 10.4581 14.5881 11.2601C14.5112 12.0529 14.3636 12.5601 14.1092 12.9649C13.8186 13.4274 13.4274 13.8186 12.9649 14.1092C12.5601 14.3636 12.0529 14.5112 11.2601 14.5881C10.4581 14.6659 9.42941 14.6666 7.99992 14.6666Z" fill="rgb(255,255,255)" fill-rule="nonzero" />
	<path id="Vector" d="M4.73972 14.5881C3.94689 14.5112 3.43972 14.3636 3.03497 14.1092C2.57237 13.8186 2.1812 13.4274 1.89052 12.9649C1.63628 12.5601 1.4885 12.0529 1.41174 11.2601C1.33396 10.4581 1.33325 9.42941 1.33325 7.99992C1.33325 6.57042 1.33396 5.54174 1.41174 4.73972C1.4885 3.94689 1.63628 3.43972 1.89052 3.03497C2.18119 2.57236 2.57236 2.18119 3.03497 1.89052C3.43972 1.63628 3.94689 1.4885 4.73972 1.41174C5.54164 1.33396 6.57032 1.33325 7.99992 1.33325C9.42941 1.33325 10.4581 1.33396 11.2601 1.41174C12.0529 1.4885 12.5601 1.63628 12.9649 1.89052C13.4274 2.1812 13.8186 2.57237 14.1092 3.03497C14.3636 3.43972 14.5112 3.94689 14.5881 4.73972C14.6659 5.54174 14.6666 6.57042 14.6666 7.99992C14.6666 9.42941 14.6659 10.4581 14.5881 11.2601C14.5112 12.0529 14.3636 12.5601 14.1092 12.9649C13.8186 13.4274 13.4274 13.8186 12.9649 14.1092C12.5601 14.3636 12.0529 14.5112 11.2601 14.5881C10.4581 14.6659 9.42941 14.6666 7.99992 14.6666C6.57042 14.6666 5.54174 14.6659 4.73972 14.5881Z" fill-rule="nonzero" stroke="rgb(255,255,255)" stroke-width="2" />
	<path id="Vector" d="M7.99992 11.3333C9.47268 11.3333 10.6666 10.1394 10.6666 8.66667C10.6666 7.19391 9.47268 6 7.99992 6C6.52716 6 5.33325 7.19391 5.33325 8.66667C5.33325 10.1394 6.52716 11.3333 7.99992 11.3333Z" fill="rgb(255,255,255)" fill-rule="nonzero" />
	<path id="Vector" d="M7.99992 11.3333C6.52716 11.3333 5.33325 10.1394 5.33325 8.66667C5.33325 7.19391 6.52716 6 7.99992 6C9.47268 6 10.6666 7.19391 10.6666 8.66667C10.6666 10.1394 9.47268 11.3333 7.99992 11.3333Z" fill-rule="nonzero" stroke="rgb(0,0,0)" stroke-width="2" />
	<path id="Vector" d="M11.25 5.5C11.6642 5.5 12 5.16421 12 4.75C12 4.33579 11.6642 4 11.25 4C10.8358 4 10.5 4.33579 10.5 4.75C10.5 5.16421 10.8358 5.5 11.25 5.5Z" fill="rgb(0,0,0)" fill-rule="nonzero" />
</svg>
