<svg viewBox="0 0 16 16" xmlns="http://www.w3.org/2000/svg" xmlns:xlink="http://www.w3.org/1999/xlink" width="16.000000" height="16.000000" fill="none">
	<rect id="Icon/16px/Facebook" width="16.000000" height="16.000000" x="0.000000" y="0.000000" fill="rgb(255,255,255)" fill-opacity="0" />
	<path id="Vector" d="M8.84757 3.81794C8.84757 3.98169 8.84757 4.51541 8.84757 5.27366L11.4546 5.27366L11.1719 7.59763L8.84757 7.59763C8.84757 11.1816 8.84757 15.9843 8.84757 15.9843L5.76238 15.9843C5.76238 15.9843 5.76238 11.2452 5.76238 7.59763L4.15479 7.59763L4.15479 5.27366L5.76238 5.27366C5.76238 4.35204 5.76238 3.69669 5.76238 3.51422C5.76238 2.64485 5.69688 2.23235 6.06629 1.55866C6.43588 0.885005 7.47838 -0.00543266 9.28147 0.0160048C11.085 0.0382236 11.8452 0.211724 11.8452 0.211724L11.4546 2.6885C11.4546 2.6885 10.3029 2.38441 9.73763 2.49279C9.1731 2.60119 8.84757 2.94894 8.84757 3.81794Z" fill="rgb(255,255,255)" fill-rule="nonzero" />
</svg>
