<svg width="66" height="23" viewBox="0 0 66 23" fill="none" xmlns="http://www.w3.org/2000/svg">
<path d="M14.262 16.17C13.2001 17.4491 8.06086 17.5979 6.13011 17.5979C2.31689 17.5979 0 15.1362 0 11.5644C0 8.01661 2.34103 5.55491 6.13011 5.55491C7.96432 5.55491 13.2483 6.75761 14.3102 8.03672L8.88142 9.53707C8.10913 8.69237 7.26443 8.35449 6.13011 8.35449C4.51312 8.35449 3.11333 9.65774 3.11333 11.5644C3.11333 13.6399 4.41658 14.7984 6.13011 14.7984C7.14375 14.7984 8.3022 14.4122 8.92969 13.6158L14.262 16.17Z" fill="white"/>
<path d="M28.9647 6.34732L21.9416 23H18.4904L20.7349 17.8111L15.8839 6.34732H19.311L21.7244 12.4774L22.4243 14.6737L23.1 12.4774L25.5135 6.34732H28.9647Z" fill="white"/>
<path d="M36.8545 8.90556C35.1169 8.90556 33.8619 10.2329 33.8619 12.043C33.8619 13.829 35.1169 15.1563 36.8545 15.1563C38.5439 15.1563 39.7024 13.9014 39.7024 12.043C39.7024 10.1605 38.5439 8.90556 36.8545 8.90556ZM30.8451 17.6904V0H33.9101V6.29905L33.8619 7.11962C34.3687 6.44386 35.9133 6.05771 36.9752 6.05771C40.7643 6.05771 42.8881 8.83316 42.8881 12.043C42.8881 15.6632 40.716 18.0042 36.9752 18.0042C36.0581 18.0042 34.5859 17.5698 33.9825 16.8457L34.0067 17.4974V17.6904H30.8451Z" fill="white"/>
<path d="M55.6474 16.2424C54.7544 17.4008 52.703 18.1007 50.9412 18.1007C47.1039 18.1007 44.9559 15.4701 44.9559 12.0672C44.9559 8.59181 47.0798 6.05771 50.8206 6.05771C54.5373 6.05771 56.6611 8.59181 56.6611 12.0672C56.6611 12.4533 56.6611 12.6946 56.6369 13.0325H48.0934C48.2623 14.4564 49.3242 15.3494 50.9412 15.3494C52.0997 15.3494 53.1857 14.9633 53.8615 14.2151L55.6474 16.2424ZM48.1417 10.957H53.4512C53.3064 9.67786 52.2445 8.80902 50.8206 8.80902C49.3967 8.80902 48.2623 9.67786 48.1417 10.957Z" fill="white"/>
<path d="M65.1139 9.19517C64.4864 8.97796 63.9313 8.90556 63.2797 8.90556C62.8453 8.90556 62.4833 8.92969 62.1454 9.0745V17.6904H59.0321V6.85414C59.9733 6.37146 61.5903 6.03358 63.159 6.03358C63.8348 6.03358 65.0415 6.10598 65.7655 6.37146L65.1139 9.19517Z" fill="white"/>
</svg>
