<svg width="16" height="16" viewBox="0 0 16 16" fill="none" xmlns="http://www.w3.org/2000/svg">
<g clip-path="url(#clip0_366_3786)">
<path d="M8.00001 14.6667C6.57052 14.6667 5.54183 14.666 4.73981 14.5882C3.94698 14.5114 3.43981 14.3637 3.03506 14.1093C2.57246 13.8187 2.18129 13.4276 1.89062 12.965C1.63637 12.5602 1.4886 12.0531 1.41183 11.2602C1.33405 10.4582 1.33334 9.42954 1.33334 8.00004C1.33334 6.57055 1.33405 5.54186 1.41183 4.73984C1.4886 3.94701 1.63637 3.43984 1.89062 3.03509C2.18128 2.57248 2.57245 2.18131 3.03506 1.89065C3.43981 1.6364 3.94698 1.48863 4.73981 1.41186C5.54173 1.33408 6.57041 1.33337 8.00001 1.33337C9.42951 1.33337 10.4582 1.33408 11.2602 1.41186C12.053 1.48863 12.5602 1.6364 12.965 1.89065C13.4275 2.18132 13.8187 2.57249 14.1093 3.03509C14.3636 3.43984 14.5113 3.94701 14.5882 4.73984C14.666 5.54186 14.6667 6.57055 14.6667 8.00004C14.6667 9.42954 14.666 10.4582 14.5882 11.2602C14.5113 12.0531 14.3636 12.5602 14.1093 12.965C13.8187 13.4276 13.4275 13.8187 12.965 14.1093C12.5602 14.3637 12.053 14.5114 11.2602 14.5882C10.4582 14.666 9.42951 14.6667 8.00001 14.6667Z" fill="white" stroke="white" stroke-width="2"/>
<path d="M8.00001 11.3333C9.47277 11.3333 10.6667 10.1394 10.6667 8.66667C10.6667 7.19391 9.47277 6 8.00001 6C6.52725 6 5.33334 7.19391 5.33334 8.66667C5.33334 10.1394 6.52725 11.3333 8.00001 11.3333Z" fill="white" stroke="black" stroke-width="2"/>
<path d="M11.25 5.5C11.6642 5.5 12 5.16421 12 4.75C12 4.33579 11.6642 4 11.25 4C10.8358 4 10.5 4.33579 10.5 4.75C10.5 5.16421 10.8358 5.5 11.25 5.5Z" fill="black"/>
</g>
<defs>
<clipPath id="clip0_366_3786">
<rect width="16" height="16" fill="white"/>
</clipPath>
</defs>
</svg>
