<svg width="12" height="15" viewBox="0 0 12 15" fill="none" xmlns="http://www.w3.org/2000/svg">
<path d="M5.93248 0C5.15099 0.000320799 4.37725 0.154981 3.65568 0.455104C2.93412 0.755227 2.27893 1.1949 1.72773 1.74889C1.17652 2.30289 0.740157 2.96028 0.443678 3.68335C0.147198 4.40643 -0.00355742 5.18093 6.37184e-05 5.96242C6.37184e-05 10.0824 4.25 13.8598 5.55749 14.8598C5.66724 14.9504 5.80514 15 5.94748 15C6.08982 15 6.22772 14.9504 6.33747 14.8598C7.64746 13.8298 11.8624 10.0824 11.8624 5.96242C11.866 5.18114 11.7153 4.40684 11.419 3.68393C11.1227 2.96102 10.6866 2.30374 10.1356 1.74978C9.58468 1.19582 8.92978 0.756093 8.20851 0.455823C7.48723 0.155553 6.71376 0.000649811 5.93248 0ZM5.93248 8.42738C5.43803 8.42738 4.95469 8.28076 4.54357 8.00606C4.13246 7.73136 3.81203 7.34092 3.62281 6.88411C3.4336 6.4273 3.38409 5.92464 3.48055 5.4397C3.57701 4.95475 3.81511 4.5093 4.16474 4.15967C4.51436 3.81005 4.95981 3.57195 5.44476 3.47549C5.92971 3.37903 6.43237 3.42853 6.88918 3.61775C7.34598 3.80697 7.73642 4.12739 8.01112 4.53851C8.28582 4.94963 8.43244 5.43297 8.43244 5.92742C8.43244 6.59045 8.16906 7.22632 7.70022 7.69516C7.23139 8.16399 6.59551 8.42738 5.93248 8.42738Z" fill="white"/>
</svg>
