<svg width="12" height="18" viewBox="0 0 12 18" fill="none" xmlns="http://www.w3.org/2000/svg">
<path d="M11.2229 7.98007C11.0473 7.84184 9.49689 6.13449 8.61893 5.33873C8.61519 5.33499 8.61519 5.33499 8.61519 5.33126V1.65504C8.61519 0.743462 7.87173 0 6.96015 0H1.53923C0.691158 0 0 0.694894 0 1.53923V10.1619C0 11.0735 0.743462 11.8169 1.65504 11.8169H3.23163H3.63138C3.69863 11.8169 3.75467 11.7572 3.7472 11.6899L3.66127 10.9577C3.6538 10.8979 3.60523 10.8568 3.54545 10.8568H3.39975H3.31009C3.24658 10.8568 3.19427 10.8045 3.19427 10.741V0.945205C3.19427 0.881694 3.24658 0.82939 3.31009 0.82939H6.97136C7.34122 0.82939 7.64384 1.132 7.64384 1.50187V9.50436V10.2927C7.64384 10.5467 7.46824 10.7634 7.23288 10.8306C7.22914 10.8306 7.22914 10.8306 7.2254 10.8306C6.82565 10.6139 6.35492 9.68742 6.28394 9.54172C6.27646 9.53051 6.27273 9.51557 6.27273 9.50436C6.24658 9.26899 5.98132 6.99004 4.76712 6.99004C4.7335 6.99004 4.69988 6.99004 4.66625 6.99377C4.66625 6.99377 3.69489 7.07596 4.49813 9.84433C4.49813 9.8518 4.50187 9.85554 4.50187 9.86301L4.85679 12.9303C4.85679 12.934 4.85679 12.9377 4.86052 12.9452C4.89041 13.061 5.2939 14.6264 6.33624 15.736C6.35492 15.7584 6.36613 15.7846 6.36613 15.8144V16.0797C6.36613 16.0872 6.36239 16.0909 6.35492 16.0909H6.26152C6.03362 16.0909 5.84682 16.2777 5.84682 16.5056V17.5853C5.84682 17.8132 6.03362 18 6.26152 18H10.6588C10.8867 18 11.0735 17.8132 11.0735 17.5853V16.5131C11.0735 16.2852 10.8867 16.0984 10.6588 16.0984C10.6513 16.0984 10.6476 16.0946 10.6476 16.0872C10.7933 14.7347 11.3163 10.1096 11.5965 9.7472C11.604 9.73599 11.6115 9.72478 11.6152 9.70984C11.6638 9.54172 11.9066 8.51432 11.2229 7.98007ZM1.72976 10.7484C1.72976 10.8082 1.6812 10.8531 1.62516 10.8531C1.25903 10.8531 0.960149 10.5542 0.960149 10.188V1.4944C0.960149 1.12827 1.25903 0.82939 1.62516 0.82939C1.68493 0.82939 1.72976 0.877958 1.72976 0.933997V10.7484Z" fill="white"/>
</svg>
