<svg width="16" height="15" viewBox="0 0 16 15" fill="none" xmlns="http://www.w3.org/2000/svg">
<path d="M8.41253 10.7855C8.15186 10.5385 7.84773 10.3487 7.5156 10.2304L6.81932 7.51903L15.1118 5.19924L16.0002 8.6612L8.41253 10.7855ZM5.77261 3.4431L11.3011 1.89676L12.1901 5.35987L6.66211 6.90621L5.77261 3.4431ZM6.02071 10.1784C5.86636 10.2218 5.72288 10.2836 5.58339 10.3516L3.14584 0.853487H2.2289C2.13686 1.05414 1.94421 1.19534 1.71669 1.19534H0.572231C0.256103 1.19534 0 0.927231 0 0.597384C0 0.267536 0.256103 0 0.572231 0H1.71669C1.90877 0 2.06998 0.105185 2.17402 0.255532H3.93473V0.284686L3.96103 0.276683L6.48204 10.0995C6.32827 10.1138 6.17449 10.1361 6.02071 10.1784ZM6.16877 10.7558C7.2372 10.4568 8.33536 11.1188 8.62176 12.2352C8.90816 13.3505 8.27419 14.4973 7.20519 14.7962C6.13676 15.0941 5.0386 14.4321 4.7522 13.3168C4.4658 12.2015 5.10034 11.0547 6.16877 10.7558ZM5.86751 13.0441C5.98984 13.522 6.46089 13.8056 6.91879 13.6769C7.37669 13.5483 7.64822 13.0573 7.52589 12.5794C7.40355 12.1014 6.93251 11.8179 6.47461 11.9454C6.01614 12.074 5.7446 12.5656 5.86751 13.0441ZM15.9287 10.6929L9.24944 12.5611C9.23744 12.4016 9.21514 12.2404 9.17398 12.0797C9.1334 11.9191 9.07451 11.7682 9.00877 11.623L15.6532 9.76508L15.9287 10.6929Z" fill="white"/>
</svg>
