<svg width="16" height="16" viewBox="0 0 16 16" fill="none" xmlns="http://www.w3.org/2000/svg">
<path d="M11.8836 3.358C11.2243 2.59144 10.8788 1.60104 10.9063 0.592723L8.4425 0.533203C8.4425 0.533203 8.4425 0.638323 8.4425 0.780083V10.6602C8.4769 13.786 3.53834 13.7102 3.92906 10.2551C4.16794 8.88136 5.6441 8.03592 6.95578 8.51384V5.99992C4.1001 5.50264 1.39386 7.7756 1.42234 10.6713C1.67194 16.9513 10.6793 16.9521 10.9292 10.6713C10.8663 10.4465 10.9015 6.26152 10.8926 5.90856C12.0129 6.60568 13.3164 6.95416 14.6366 6.90952V4.3132C13.4161 4.3132 12.4847 3.98872 11.8836 3.358Z" fill="white"/>
</svg>
